<svg xmlns="http://www.w3.org/2000/svg" xmlns:xlink="http://www.w3.org/1999/xlink" width="500" zoomAndPan="magnify" viewBox="0 0 375 374.999991" height="500" preserveAspectRatio="xMidYMid meet" version="1.0"><defs><g/><clipPath id="b1ada058d2"><path d="M 137 79 L 233 79 L 233 156 L 137 156 Z M 137 79 " clip-rule="nonzero"/></clipPath><clipPath id="b287237dc8"><path d="M 138.953125 74.253906 L 234.449219 84.09375 L 226.996094 156.460938 L 131.5 146.621094 Z M 138.953125 74.253906 " clip-rule="nonzero"/></clipPath><clipPath id="7572d22820"><path d="M 138.953125 74.253906 L 234.449219 84.09375 L 226.996094 156.460938 L 131.5 146.621094 Z M 138.953125 74.253906 " clip-rule="nonzero"/></clipPath></defs><g fill="#1e1e1e" fill-opacity="1"><g transform="translate(35.427417, 224.849985)"><g><path d="M 49.546875 -61.875 L 49.625 -21.84375 L 46.0625 -17.671875 L 19.71875 -16.828125 L 18.953125 -1.1875 L 1.703125 0.25 L 1.703125 -67.734375 L 46.234375 -65.1875 Z M 31.78125 -51.75 L 20.5625 -52.859375 L 20.140625 -32.125 L 31.703125 -32.96875 Z M 31.78125 -51.75 "/></g></g></g><g fill="#1e1e1e" fill-opacity="1"><g transform="translate(86.750949, 224.849985)"><g><path d="M 48.265625 -44.1875 L 41.125 -39.6875 L 50.140625 -8.25 L 48.859375 -4.078125 L 34.25 0.171875 L 26.4375 -30.421875 L 20.3125 -26.515625 L 19.46875 -2.046875 L 1.703125 -0.34375 L 2.203125 -68.15625 L 21.75 -68.15625 L 21.078125 -47.25 L 32.046875 -54.21875 L 33.0625 -68.25 L 50.90625 -67.640625 Z M 48.265625 -44.1875 "/></g></g></g><g fill="#1e1e1e" fill-opacity="1"><g transform="translate(139.349067, 224.849985)"><g><path d="M 44.53125 -33.65625 L 48.953125 -28.890625 L 48.53125 -5.609375 L 42.40625 -0.84375 L 1.703125 0.171875 L 2.296875 -67.640625 L 40.96875 -65.6875 L 45.890625 -59.40625 L 46.90625 -36.625 Z M 30.59375 -40.203125 L 30.078125 -52.78125 L 18.609375 -54.5625 L 18.859375 -41.890625 Z M 32.46875 -27.53125 L 19.03125 -29.75 L 18.953125 -13.6875 L 31.875 -15.71875 Z M 32.46875 -27.53125 "/></g></g></g><g fill="#1e1e1e" fill-opacity="1"><g transform="translate(189.992821, 224.849985)"><g><path d="M 45.640625 -67.984375 L 49.625 -63.65625 L 49.03125 -6.203125 L 45.890625 -0.171875 L 7.734375 0.078125 L 2.125 -3.234375 L 1.703125 -63.484375 L 4.421875 -67.734375 Z M 19.546875 -53.703125 L 20.0625 -14.453125 L 31.53125 -13.6875 L 31.703125 -52.6875 Z M 19.546875 -53.703125 "/></g></g></g><g fill="#1e1e1e" fill-opacity="1"><g transform="translate(241.316364, 224.849985)"><g><path d="M 42.921875 -16.0625 L 44.875 0.078125 L 1.703125 0.078125 L 2.296875 -68.15625 L 20.484375 -67.046875 L 19.546875 -16.3125 Z M 42.921875 -16.0625 "/></g></g></g><g fill="#1e1e1e" fill-opacity="1"><g transform="translate(287.88141, 224.849985)"><g><path d="M 43.515625 -64.59375 L 49.96875 -56 L 48.53125 -8.671875 L 41.890625 -0.84375 L 1.703125 0.078125 L 2.203125 -67.984375 Z M 19.625 -51.5 L 20.3125 -13.765625 L 32.125 -16.40625 L 32.71875 -47.765625 Z M 19.625 -51.5 "/></g></g></g><g clip-path="url(#b1ada058d2)"><g clip-path="url(#b287237dc8)"><g clip-path="url(#7572d22820)"><path fill="#1e1e1e" d="M 147.160156 146.898438 C 148.824219 146.734375 152.144531 146.382812 155.5 146.175781 C 158.851562 145.972656 162.234375 145.914062 165.652344 146.007812 C 169.070312 146.101562 172.523438 146.335938 175.105469 146.617188 C 177.6875 146.902344 179.394531 147.125 181.046875 147.375 C 182.699219 147.621094 184.296875 147.894531 185.847656 148.183594 C 187.394531 148.472656 188.886719 148.785156 190.710938 149.183594 C 192.53125 149.582031 194.714844 150.085938 196.964844 150.644531 C 199.210938 151.203125 201.527344 151.808594 203.902344 152.476562 C 206.277344 153.144531 208.71875 153.871094 210.609375 154.402344 C 212.5 154.929688 213.355469 155.097656 214.140625 155.21875 C 214.929688 155.335938 215.722656 155.394531 216.855469 155.277344 C 217.988281 155.164062 220.28125 153.9375 221.273438 149.917969 C 222.261719 145.898438 222.609375 141.863281 223.492188 137.035156 C 224.371094 132.207031 225.703125 126.589844 227.535156 120.203125 C 229.367188 113.816406 231.726562 106.683594 232.246094 100.117188 C 232.761719 93.550781 229.390625 92.835938 228.265625 93.339844 C 227.140625 93.84375 226.613281 94.28125 226.152344 94.738281 C 225.691406 95.195312 225.214844 95.71875 224.484375 96.5625 C 223.753906 97.40625 222.453125 98.9375 220.691406 101.023438 C 218.929688 103.109375 216.699219 105.753906 214.015625 108.976562 C 211.328125 112.199219 208.148438 115.96875 206.296875 118.179688 C 204.445312 120.390625 204.273438 120.574219 204.21875 120.632812 C 204.164062 120.691406 204.289062 120.636719 204.671875 120.5625 C 205.058594 120.484375 205.71875 120.347656 205.929688 120.40625 C 206.144531 120.464844 206.082031 120.394531 205.761719 120.027344 C 205.445312 119.660156 204.972656 119.003906 204.40625 118.082031 C 203.84375 117.15625 203.203125 115.980469 202.648438 114.867188 C 202.09375 113.75 201.445312 112.257812 200.4375 109.804688 C 199.429688 107.351562 198.117188 103.957031 196.488281 99.648438 C 194.855469 95.335938 192.902344 90.105469 191.683594 86.847656 C 190.460938 83.585938 190.183594 82.996094 189.832031 82.402344 C 189.484375 81.8125 189.011719 81.199219 188.292969 80.566406 C 187.578125 79.929688 186.476562 79.367188 185.46875 79.152344 C 184.460938 78.9375 182.375 79.277344 181.195312 80.066406 C 180.011719 80.855469 179.390625 81.59375 178.957031 82.28125 C 178.523438 82.972656 178.167969 83.660156 175.027344 91.359375 C 171.882812 99.058594 166.363281 113.726562 166.164062 114.210938 C 165.964844 114.695312 165.785156 115.101562 165.660156 115.359375 C 165.535156 115.617188 165.492188 115.699219 165.636719 115.535156 C 165.777344 115.371094 170.4375 113.933594 170.324219 113.777344 C 170.210938 113.625 168.488281 112.386719 165.835938 110.214844 C 163.179688 108.039062 159.675781 104.992188 155.359375 101.097656 C 151.039062 97.203125 145.875 92.464844 145.265625 92 C 144.65625 91.539062 143.972656 91.175781 142.996094 90.925781 C 142.019531 90.675781 140.726562 90.761719 139.53125 91.363281 C 138.339844 91.96875 136.785156 95.285156 137.113281 98.367188 C 137.4375 101.445312 138.207031 105.132812 139.382812 109.5 C 140.558594 113.867188 142.152344 118.941406 143.75 123.019531 C 145.347656 127.097656 150.367188 125.648438 149.5625 122.867188 C 149.5625 122.867188 148.738281 117.105469 147.75 112.339844 C 146.761719 107.570312 146.109375 103.640625 145.816406 100.59375 C 145.523438 97.542969 145.558594 95.429688 144.488281 97.242188 C 143.417969 99.050781 142.402344 99.410156 141.546875 99.382812 C 140.691406 99.355469 140.207031 99.183594 140.007812 99.078125 C 139.8125 98.972656 139.628906 98.820312 144.210938 103.652344 C 148.792969 108.480469 152.707031 112.429688 155.9375 115.511719 C 159.167969 118.59375 161.757812 120.835938 163.921875 122.363281 C 166.082031 123.886719 168.660156 124.765625 171.457031 123.554688 C 174.257812 122.339844 174.707031 121.714844 175.066406 121.105469 C 175.421875 120.5 175.742188 119.871094 176.054688 119.1875 C 176.367188 118.507812 176.722656 117.660156 182.101562 102.929688 C 187.484375 88.199219 187.574219 87.949219 187.652344 87.757812 C 187.730469 87.5625 187.6875 87.601562 187.324219 87.941406 C 186.960938 88.277344 185.898438 88.839844 184.59375 88.921875 C 183.289062 89.003906 182.871094 88.855469 182.265625 88.484375 C 181.664062 88.117188 181.414062 87.851562 181.351562 87.753906 C 181.292969 87.660156 181.34375 87.722656 181.441406 87.882812 C 181.535156 88.042969 184.09375 93.722656 186.277344 98.535156 C 188.457031 103.347656 190.261719 107.277344 191.683594 110.335938 C 193.101562 113.394531 194.152344 115.59375 194.867188 116.957031 C 195.582031 118.320312 196.417969 119.769531 197.226562 121.054688 C 198.035156 122.339844 198.824219 123.4375 199.625 124.378906 C 200.421875 125.316406 201.292969 126.109375 202.257812 126.683594 C 203.21875 127.257812 204.160156 127.566406 205.226562 127.449219 C 206.296875 127.332031 207.140625 127.046875 207.800781 126.65625 C 208.460938 126.265625 209.011719 125.820312 209.515625 125.324219 C 210.019531 124.824219 213.691406 120.835938 216.863281 117.398438 C 220.03125 113.960938 222.722656 111.089844 224.90625 108.757812 C 227.089844 106.425781 228.789062 104.660156 229.984375 103.445312 C 231.175781 102.226562 231.640625 101.757812 231.957031 101.460938 C 232.273438 101.167969 232.433594 101.039062 232.269531 101.152344 C 232.101562 101.265625 230.910156 101.671875 228.511719 98.707031 C 226.117188 95.742188 222.832031 103.269531 220.09375 110.257812 C 217.359375 117.25 215.246094 123.644531 213.804688 129.464844 C 212.363281 135.289062 211.558594 140.539062 211.378906 145.070312 C 211.199219 149.601562 213.042969 145.613281 214.453125 145.003906 C 215.863281 144.394531 216.097656 144.390625 215.890625 144.375 C 215.6875 144.359375 215.207031 144.292969 214.652344 144.203125 C 214.097656 144.109375 211.601562 143.46875 209.042969 142.851562 C 206.484375 142.234375 203.988281 141.675781 201.550781 141.175781 C 199.113281 140.675781 196.730469 140.242188 194.421875 139.875 C 192.113281 139.507812 190.527344 139.28125 188.878906 139.078125 C 187.230469 138.878906 185.539062 138.703125 183.804688 138.554688 C 182.070312 138.40625 180.292969 138.273438 178.441406 138.167969 C 176.585938 138.058594 172.875 138.007812 169.195312 138.101562 C 165.515625 138.191406 161.890625 138.457031 158.324219 138.878906 C 154.753906 139.304688 151.246094 139.894531 149.5 140.320312 C 146.066406 141.0625 148.84375 146.582031 147.160156 146.898438 Z M 147.160156 146.898438 " fill-opacity="1" fill-rule="nonzero"/></g></g></g></svg>